<svg xmlns="http://www.w3.org/2000/svg" width="352.667" height="163.672" viewBox="0 0 1305.69 605.968">
  <metadata><?xpacket begin="﻿" id="W5M0MpCehiHzreSzNTczkc9d"?>
<x:xmpmeta xmlns:x="adobe:ns:meta/" x:xmptk="Adobe XMP Core 5.6-c138 79.159824, 2016/09/14-01:09:01        ">
   <rdf:RDF xmlns:rdf="http://www.w3.org/1999/02/22-rdf-syntax-ns#">
      <rdf:Description rdf:about=""/>
   </rdf:RDF>
</x:xmpmeta>
                                                                                                    
                                                                                                    
                                                                                                    
                                                                                                    
                                                                                                    
                                                                                                    
                                                                                                    
                                                                                                    
                                                                                                    
                                                                                                    
                                                                                                    
                                                                                                    
                                                                                                    
                                                                                                    
                                                                                                    
                                                                                                    
                                                                                                    
                                                                                                    
                                                                                                    
                                                                                                    
                           
<?xpacket end="w"?></metadata>
<defs>
    <style>
      .cls-1 {
        fill: #fff200;
        fill-rule: evenodd;
      }
    </style>
  </defs>
  <path id="Shape_1_copy" data-name="Shape 1 copy" class="cls-1" d="M999.333,542.519l15.927,11.233-5.75,8.305L995.753,553.8H443.425c24.631,16.407,52.394,28.631,80.312,29.464,69.443,2.155,93.835-10.188,100.186-9.177,6.108,1.09-6.579,15.554-27.039,22.479-15.714,5.31-48.489,10.971-73.464,10.134C452.029,604.4,400.432,592.581,356.7,553.8H190.011l-9.3,7.022-5.043-7.122,13.878-11.186H999.333Zm-59.446-55.244c6.22,0,10.667-2.6,10.667-9.559,0-7.175-4.552-10.048-10.667-10.048H926.375v19.607h13.512ZM906.392,528.1v-76.39h36.375c14.371,0,27.77,6.5,27.77,24.6,0,18.963-10.852,26.375-27.77,26.375H926.375V528.1H906.392Zm79.952,0h-20.08V508.236h20.08V528.1Zm-121.7-60.43H848.746v17.209h16.8c5.968,0,9.25-3.193,9.25-9.031,0-5.63-4.556-8.178-10.157-8.178M893.852,510.9c0.251,3.189.6,14.391,3.17,17.194H877.306c-1.673-2.518-1.939-10.044-2.261-12.135-0.487-7.727-1.733-15.659-11.131-15.659H848.746V528.1H828.763v-76.39h39.118c13.563,0,26.939,6.073,26.939,21.559,0,8.2-4.061,16.009-12.061,19.094v0.228c8.171,1.943,10.4,11.058,11.093,18.315m-95.995-20.96c0-11.434-4.873-22.739-17.874-22.739-12.846,0-17.823,11.305-17.823,22.739,0,11.286,4.977,22.657,17.823,22.657,13,0,17.874-11.371,17.874-22.657m-55.746,0c0-22.188,13.744-39.844,37.872-39.844,24.229,0,37.923,17.656,37.923,39.844,0,22.152-13.694,39.812-37.923,39.812-24.128,0-37.872-17.66-37.872-39.812M699.01,512.6c9.367,0,14.688-5.383,15.485-14.152H734.44c-1.115,19.743-15.622,31.307-34.954,31.307-23.315,0-38.337-17.66-38.337-39.812,0-22.188,15.022-39.844,38.337-39.844,16.507,0,34.369,10.457,34.954,28.9H714.5c-1.075-7.7-7.152-11.8-15.485-11.8-13.032,0-17.878,11.305-17.878,22.739,0,11.286,4.846,22.657,17.878,22.657M586.941,482.749l15.277-31.041h22.638l-27.921,47.949V528.1H576.963V499.657L548.98,451.708H571.7ZM506.1,528.1v-76.39H526.14v59.324h35.709V528.1H506.1Zm-40.211-40.823c6.213,0,10.71-2.6,10.71-9.559,0-7.175-4.59-10.048-10.71-10.048H452.4v19.607h13.492ZM432.413,528.1v-76.39h36.425c14.321,0,27.72,6.5,27.72,24.6,0,18.963-10.8,26.375-27.72,26.375H452.4V528.1H432.413Zm-40.272-40.823c6.329,0,10.864-2.6,10.864-9.559,0-7.175-4.694-10.048-10.864-10.048H378.7v19.607h13.442ZM358.74,528.1v-76.39h36.49c14.279,0,27.686,6.5,27.686,24.6,0,18.963-10.776,26.375-27.686,26.375H378.7V528.1H358.74Zm-13.311-76.39v44.841c0,22.171-10.218,33.207-33.375,33.207-23.273,0-33.545-11.036-33.545-33.207V451.708H298.6v46.079c0,9.79,3.637,14.814,13.453,14.814,9.715,0,13.337-5.024,13.337-14.814V451.708h20.038Zm-97.957,30.327c11.038,3.158,22.294,8.3,22.294,22.133,0,19.407-16.6,25.588-33.5,25.588-17.607,0-33.162-7.723-33.294-27.273h19.984c0.448,8.965,6.025,11.861,14.478,11.861,6.066,0,12.328-2.167,12.328-7.832,0-6.771-10.961-8.063-22.081-11.124-10.95-3.1-22.414-8.031-22.414-22.071,0-16.681,16.864-23.217,31.223-23.217,15.288,0,30.708,7.438,30.813,24.636H247.325c0.209-6.98-6.317-9.227-12.394-9.227-4.272,0-9.664,1.465-9.664,6.516,0,5.915,11,6.979,22.205,10.01M538.521,65.1c-4.911-.158-3.769-12.373-18.047-15.666-9.142-2.109-19.9-.9-56.609,12.566C427.13,75.52,286.1,186.185,265.079,203.529s-13.532,34.962-5.6,50.246c15.578,30.154,46.522,102.06,89.357,170.98H1182.85l17.37-16.237,8.79,8.49-18.22,17.811L21.059,434.665l-20.3-17.622,7.469-8.525,18.369,16.237H277.967c-5.457-10.376-11.124-22.028-16.364-33.585-14.94-32.54-34.37-72.511-51.009-111.155-11.321-26.29-10.353-32.575-29.736-29.077-19.364,3.439-28.522,6.959-38.325,22.8-9.769,15.878-29.9,59.481-58.692,80.824C54.963,375.881,37.036,380.732,25.9,380.435c-10.044-.281-33.031-5.919-20.277-16.611,17.146-14.271,39.44-31.893,54.1-62.227,14.692-30.385,20.571-42.589,27.581-45,7.094-2.367,3.634-16.746-.414-21.832C82.8,229.66,84.619,205.9,94.4,198.3c9.8-7.669,32.354-17.922,40.33-21.215,7.947-3.269,45.1-67.587,48.888-75.341,3.781-7.654,1.6-11.336-5.534-9.042-7.087,2.329-56.931,28.26-76.066,27.312-19.214-.918-36.093-3.648-35.539-22.766C66.853,82.322,79.7,73.654,90.487,70.075c15.381-4.985,18.326-3.6,14.61,6.768-3.982,10.765,5.229,13.087,34.738,6.119,33.924-7.97,131.483-55.321,140.837-60.542,9.3-5.163,23.819-8.229,16.945,2.637-6.715,10.882-82.63,129.213-88.524,140.9-5.826,11.745-2.814,19.908,8.507,28.576,9.688,7.5,18.287,11.9,28.158,2.8,9.9-8.985,126.938-121.805,187.77-160.681C494.437-2.282,542.024-14.1,555.8,24.6c9.487,26.749-11.863,40.746-17.278,40.5M470.5,207.45c-34.556-1.461-42.506,23.98-65.872,60.442-23.207,36.547-8.174,12.066-20.753,35.906-10.872,20.649,7.9,44.66,36.355,17.248,9.769-9.428,45.017-63.472,54.21-76.336,9.235-12.921,19.867-36.2-3.94-37.26m24.682,129.841c10.922-8.764,27.91-22.611,32.194-24.5,4.377-1.9,6.765,1.157-.716,9.852-7.393,8.714-47.363,60.407-80.738,58.505-26.191-1.526-25.042-21.088-26.7-30.048-1.645-8.977-12.339-1.6-21.524,5.841-9.13,7.461-19.2,20.9-40.844,20.421-24.841-.644-63.9-48.462,13.442-145.017,33.773-42.038,67.187-49.6,94.5-49.044,18.365,0.355,28.583,16.334,32.1,13.85a134.6,134.6,0,0,0,14.561-11.687s47.412-5.263,46.414,2.418c-0.929,7.6-71.162,118.974-77.215,131.433-6.088,12.462,3.623,26.7,14.53,17.98m304.294,0c-4.552,19.685,7.551,17.074,13.906,12.763s10.1-6.821,15.923-12.061c5.857-5.283,14.612-7.469,6.6,6.535s-38.216,46.388-65.5,45.269c-27.256-1.226-31.092-17.529-30.852-35.6,0.224-26.124,41.681-80.276,50.993-94.273,9.293-13.85,15.888-35.837-14.553-25.326-15.517,5.252-33.139,29.66-38.193,38.182-5.028,8.433-61.057,100.354-63.789,103.52-2.679,3.223-57.91,1.06-57.91,1.06s74.537-119.723,81.132-132.528c6.716-12.937,2.656-25.006-10.736-19.364-13.465,5.575-40.273,31.128-57.921,60.383-17.6,29.24-57.489,90.449-57.489,90.449L513.2,375.249S592,250.8,602.919,233.767c11.041-17.109-3.832-21.377-11.028-17.347-2.6,1.522-39.648,26.593-16.65-2.669,10.972-13.9,32.566-30.562,57.549-30.064,24.972,0.535,36.178,20.525,35.31,30.064-0.781,9.47,8.016.922,13.218-3.108,5.175-4.091,22.162-25.233,51.74-25.183,29.381,0.011,31.32,20.614,33.174,26.51,1.834,5.972,6.7,3.539,12.1-.32,5.415-3.864,27.922-20.753,36.8-24.474,8.8-3.748,45.424-4.238,46.84,14.448,1.289,18.744,1.568,32.324-6.646,43.48-8.19,11.239-51.248,72.43-55.854,92.187m213-78.853c-11.38-4.061-16.415-18.756-2.55-29.151,10.38-7.817,1.81-23.213-5.89-23.3-27.865-.444-49.338,24.385-70.645,61.6-24.605,42.905-37.107,69.985-16.8,84.3,12.606,8.966,45.064-3.809,53.134-14.733,15.179-20.513,32.033-27.531,19.12.231-11.662,24.913-46.616,52.453-85.921,51.859-36.149-.578-78.574-44.243-20.211-134.529,31.049-48.011,64.582-73.4,119.815-72.727,52.04,0.747,40.62,53.516,36.8,62.242-3.92,8.776-15.53,18.257-26.85,14.2m148.09-45.9c-26.23-.845-38.52,30.476-60.07,57.908-24.48,31.152-53.07,93.24-24.27,95.006,30.31,1.9,47.99-35.644,66.23-58.4,36.39-45.134,46.3-93.656,18.11-94.516m28.3,121.685c-34.16,43.729-77.18,71.076-135.26,47.505-26.16-10.557-50.35-70.267,3.48-140.6,32.06-41.821,83.9-64.4,128.09-40.4,44.11,24.084,36.94,90.864,3.69,133.492m96.69-176.371a17.4,17.4,0,0,0-3.86-2.992,11.286,11.286,0,0,0,7.07-3.305,9.486,9.486,0,0,0,2.38-6.647,10.229,10.229,0,0,0-1.56-5.614,8.138,8.138,0,0,0-4.16-3.42c-1.75-.66-4.51-0.976-8.36-0.976h-15.24v35.721h7.25V155.707h1.46a12.482,12.482,0,0,1,3.63.394,5.609,5.609,0,0,1,2.18,1.5,48.3,48.3,0,0,1,3.82,5.244l5.24,7.777h8.67l-4.38-6.956A41.719,41.719,0,0,0,1285.55,157.851ZM1274.42,150h-5.35v-9.05h5.64c2.94,0,4.69.039,5.29,0.1a4.421,4.421,0,0,1,2.71,1.392,4.3,4.3,0,0,1,.98,2.934,4.636,4.636,0,0,1-.74,2.672,3.908,3.908,0,0,1-2.03,1.512A28.215,28.215,0,0,1,1274.42,150Zm1.46-26.74a30.429,30.429,0,1,0,30.56,30.431A30.49,30.49,0,0,0,1275.88,123.264Zm18.65,49.012a26.208,26.208,0,1,1,7.73-18.581A26.381,26.381,0,0,1,1294.53,172.276Z" transform="translate(-0.75 -0.844)"/>
</svg>
