<?xml version="1.0" encoding="utf-8"?>
<!-- Generator: Adobe Illustrator 16.0.0, SVG Export Plug-In . SVG Version: 6.00 Build 0)  -->
<!DOCTYPE svg PUBLIC "-//W3C//DTD SVG 1.1//EN" "http://www.w3.org/Graphics/SVG/1.1/DTD/svg11.dtd">
<svg version="1.1" id="Layer_1" xmlns="http://www.w3.org/2000/svg" xmlns:xlink="http://www.w3.org/1999/xlink" x="0px" y="0px"
	 width="1038.811px" height="267.331px" viewBox="0 0 1038.811 267.331" enable-background="new 0 0 1038.811 267.331"
	 xml:space="preserve">
<g>
	<defs>
		<rect id="SVGID_1_" width="1038.808" height="267.331"/>
	</defs>
	<clipPath id="SVGID_2_">
		<use xlink:href="#SVGID_1_"  overflow="visible"/>
	</clipPath>
	<path clip-path="url(#SVGID_2_)" fill="#276092" d="M372.889,129.243h-30.991V58.447h27.549c4.793,0,8.928,0.575,12.406,1.722
		c3.477,1.148,6.093,2.702,7.849,4.659c3.174,3.646,4.761,7.765,4.761,12.357c0,5.536-1.79,9.656-5.369,12.356
		c-1.214,0.945-2.059,1.537-2.532,1.772c-0.471,0.237-1.316,0.625-2.531,1.164c4.389,0.946,7.883,2.921,10.483,5.926
		c2.599,3.005,3.899,6.734,3.899,11.192c0,4.929-1.689,9.284-5.064,13.065C389.431,127.05,382.613,129.243,372.889,129.243
		 M357.697,87.109h7.494c4.389,0,7.648-0.472,9.775-1.418c2.126-0.945,3.189-2.988,3.189-6.128s-0.979-5.215-2.937-6.229
		c-1.958-1.013-5.266-1.519-9.925-1.519h-7.596V87.109z M357.697,115.873h10.837c4.522,0,7.915-0.556,10.179-1.671
		c2.261-1.113,3.392-3.308,3.392-6.582c0-3.276-1.198-5.436-3.596-6.483c-2.397-1.046-6.228-1.569-11.494-1.569h-9.318V115.873z"/>
	<path clip-path="url(#SVGID_2_)" fill="#276092" d="M435.479,110.96c2.635,3.276,6.179,4.912,10.635,4.912
		c4.458,0,7.984-1.636,10.584-4.912c2.598-3.274,3.9-7.748,3.9-13.42V58.446h15.799v39.601c0,10.264-2.835,18.147-8.507,23.649
		c-5.673,5.504-12.931,8.254-21.776,8.254c-8.846,0-16.12-2.767-21.826-8.304c-5.706-5.536-8.558-13.402-8.558-23.599V58.446h15.799
		v39.094C431.53,103.212,432.848,107.687,435.479,110.96"/>
	<path clip-path="url(#SVGID_2_)" fill="#276092" d="M555.296,81.944c0,11.343-4.492,18.67-13.472,21.977l17.928,25.321h-19.447
		l-15.696-22.587h-10.939v22.587h-15.8V58.447h26.84c11.005,0,18.854,1.859,23.548,5.571
		C552.948,67.73,555.296,73.707,555.296,81.944 M536.255,90.351c1.957-1.756,2.938-4.542,2.938-8.356
		c0-3.813-1.014-6.432-3.039-7.849c-2.026-1.418-5.57-2.127-10.633-2.127h-11.852v20.964h11.546
		C530.616,92.982,534.295,92.106,536.255,90.351"/>
	<path clip-path="url(#SVGID_2_)" fill="#276092" d="M633.99,81.944c0,11.343-4.491,18.67-13.472,21.977l17.928,25.321H619
		l-15.697-22.587h-10.939v22.587h-15.799V58.447h26.839c11.005,0,18.854,1.859,23.548,5.571
		C631.643,67.73,633.99,73.707,633.99,81.944 M614.949,90.351c1.958-1.756,2.938-4.542,2.938-8.356c0-3.813-1.015-6.432-3.04-7.849
		c-2.026-1.418-5.57-2.127-10.633-2.127h-11.852v20.964h11.546C609.312,92.982,612.989,92.106,614.949,90.351"/>
	<path clip-path="url(#SVGID_2_)" fill="#276092" d="M714.103,119.468c-7.158,6.989-15.969,10.483-26.433,10.483
		c-10.469,0-19.279-3.494-26.436-10.483c-7.158-6.988-10.735-15.68-10.735-26.079c0-10.397,3.577-19.092,10.735-26.08
		c7.156-6.989,15.967-10.483,26.436-10.483c10.464,0,19.274,3.494,26.433,10.483c7.156,6.988,10.736,15.683,10.736,26.08
		C724.839,103.788,721.259,112.48,714.103,119.468 M708.734,93.439c0-6.312-2.024-11.698-6.076-16.154
		c-4.052-4.457-9.03-6.685-14.939-6.685s-10.886,2.228-14.938,6.685c-4.052,4.456-6.077,9.842-6.077,16.154
		c0,6.315,2.025,11.683,6.077,16.104c4.053,4.423,9.029,6.634,14.938,6.634s10.888-2.211,14.939-6.634
		C706.71,105.122,708.734,99.754,708.734,93.439"/>
	<path clip-path="url(#SVGID_2_)" fill="#276092" d="M762.008,110.96c2.634,3.276,6.178,4.912,10.634,4.912
		c4.458,0,7.984-1.636,10.584-4.912c2.599-3.274,3.9-7.748,3.9-13.42V58.446h15.8v39.601c0,10.264-2.836,18.147-8.508,23.649
		c-5.673,5.504-12.931,8.254-21.776,8.254s-16.12-2.767-21.825-8.304c-5.706-5.536-8.559-13.402-8.559-23.599V58.446h15.8v39.094
		C758.058,103.212,759.375,107.687,762.008,110.96"/>
	<path clip-path="url(#SVGID_2_)" fill="#276092" d="M870.378,93.186h15.901v25.117c-7.024,7.835-16.746,11.749-29.169,11.749
		c-10.399,0-19.126-3.444-26.181-10.331c-7.058-6.887-10.584-15.578-10.584-26.079c0-10.499,3.596-19.26,10.785-26.282
		c7.191-7.023,15.867-10.534,26.029-10.534s18.99,3.342,26.486,10.027l-8.205,11.85c-3.172-2.768-6.094-4.675-8.76-5.722
		c-2.668-1.046-5.555-1.571-8.658-1.571c-6.012,0-11.075,2.044-15.193,6.128c-4.119,4.086-6.178,9.47-6.178,16.154
		c0,6.685,1.975,12.037,5.924,16.054c3.95,4.017,8.66,6.026,14.13,6.026c5.468,0,10.026-1.047,13.672-3.14V93.186z"/>
	<polygon clip-path="url(#SVGID_2_)" fill="#276092" points="949.376,58.446 965.177,58.446 965.177,129.242 949.376,129.242 
		949.376,101.389 921.221,101.389 921.221,129.242 905.421,129.242 905.421,58.446 921.221,58.446 921.221,88.021 949.376,88.021 	
		"/>
	<path clip-path="url(#SVGID_2_)" fill="#276092" d="M1004.221,72.575c-1.519,1.25-2.279,2.905-2.279,4.963
		c0,2.061,0.928,3.698,2.785,4.912c1.856,1.215,6.144,2.651,12.862,4.305c6.719,1.654,11.935,4.137,15.649,7.445
		c3.713,3.309,5.569,8.137,5.569,14.482c0,6.348-2.379,11.495-7.14,15.445c-4.76,3.95-11.024,5.926-18.788,5.926
		c-11.209,0-21.304-4.153-30.283-12.458l9.419-11.546c7.63,6.685,14.687,10.026,21.168,10.026c2.902,0,5.182-0.623,6.837-1.873
		c1.652-1.249,2.48-2.937,2.48-5.064s-0.878-3.814-2.632-5.064c-1.757-1.249-5.234-2.515-10.434-3.798
		c-8.237-1.957-14.264-4.507-18.078-7.647c-3.815-3.14-5.723-8.068-5.723-14.787c0-6.717,2.413-11.901,7.241-15.547
		c4.827-3.645,10.854-5.469,18.079-5.469c4.726,0,9.453,0.81,14.18,2.431s8.845,3.916,12.357,6.887l-8.001,11.546
		c-6.146-4.659-12.493-6.989-19.041-6.989C1007.815,70.701,1005.741,71.326,1004.221,72.575"/>
	<path clip-path="url(#SVGID_2_)" fill="#276092" d="M367.369,201.782c3.061,0,5.698-0.516,7.906-1.545
		c2.209-1.027,4.52-2.674,6.93-4.933l5.723,5.874c-5.573,6.175-12.339,9.264-20.295,9.264c-7.958,0-14.561-2.56-19.807-7.682
		c-5.247-5.122-7.869-11.598-7.869-19.43s2.673-14.358,8.019-19.58c5.347-5.223,12.099-7.832,20.258-7.832
		s14.975,3.011,20.447,9.037l-5.648,6.175c-2.512-2.411-4.884-4.092-7.116-5.046c-2.236-0.953-4.858-1.432-7.871-1.432
		c-5.323,0-9.79,1.722-13.406,5.159c-3.614,3.44-5.421,7.833-5.421,13.18s1.796,9.815,5.385,13.403
		C358.192,199.987,362.447,201.782,367.369,201.782"/>
	<polygon clip-path="url(#SVGID_2_)" fill="#276092" points="439.514,157.199 439.514,165.559 411.425,165.559 411.425,179.49 
		436.653,179.49 436.653,187.397 411.425,187.397 411.425,201.481 440.418,201.481 440.418,209.839 402.537,209.839 
		402.537,157.199 	"/>
	<polygon clip-path="url(#SVGID_2_)" fill="#276092" points="495.017,157.199 503.904,157.199 503.904,209.839 494.264,209.839 
		464.442,171.433 464.442,209.839 455.555,209.839 455.555,157.199 464.442,157.199 495.017,196.509 	"/>
	<polygon clip-path="url(#SVGID_2_)" fill="#276092" points="542.159,165.332 542.159,209.839 533.274,209.839 533.274,165.332 
		517.307,165.332 517.307,157.199 558.125,157.199 558.125,165.332 	"/>
	<polygon clip-path="url(#SVGID_2_)" fill="#276092" points="608.507,157.199 608.507,165.559 580.417,165.559 580.417,179.49 
		605.645,179.49 605.645,187.397 580.417,187.397 580.417,201.481 609.411,201.481 609.411,209.839 571.53,209.839 571.53,157.199 	
		"/>
	<path clip-path="url(#SVGID_2_)" fill="#276092" d="M666.569,174.294c0,8.686-3.791,14.158-11.371,16.417l13.781,19.129h-11.295
		l-12.578-17.697h-11.671v17.697h-8.889v-52.641h19.58c8.033,0,13.782,1.354,17.247,4.066
		C664.839,163.977,666.569,168.32,666.569,174.294 M654.747,181.749c1.809-1.555,2.71-4.054,2.71-7.493
		c0-3.438-0.929-5.799-2.786-7.078c-1.858-1.281-5.171-1.921-9.94-1.921h-11.295v18.827h11.068
		C649.524,184.084,652.939,183.307,654.747,181.749"/>
	<path clip-path="url(#SVGID_2_)" fill="#276092" d="M123.928,10.578c-28.554,2.33-55.502,14.637-76.032,34.768
		c-20.498,20.097-33.333,46.731-36.254,75.159C65.101,104.62,107.907,62.714,123.928,10.578"/>
	<path clip-path="url(#SVGID_2_)" fill="#276092" d="M148.414,10.966c8.061,26.557,22.951,50.717,43.137,69.957
		c19.009,18.122,40.791,31.012,64.77,38.332C249.936,62.711,204.932,17.547,148.414,10.966"/>
	<path clip-path="url(#SVGID_2_)" fill="#276092" d="M11.472,144.008c5.194,59.523,53.327,107.216,112.897,111.863
		C109,202.577,65.957,159.923,11.472,144.008"/>
	<path clip-path="url(#SVGID_2_)" fill="#276092" d="M256.552,144.563c-51.981,15.638-93.099,57.89-107.868,110.841
		C206.259,248.58,251.263,202.337,256.552,144.563"/>
	<path clip-path="url(#SVGID_2_)" fill="#6CC04A" d="M137.307,13.14l-1.795,0.076C127.2,73.322,76.322,123.414,14.619,132.25
		l0.076,1.321c62.42,8.86,113.182,59.529,120.89,120.534c0.244,0.174,0.67,0.326,1.539,0.362c0.298,0,0.585-0.048,0.824-0.179
		c7.595-62.193,55.311-111.53,116.422-120.343c0.185-0.239,0.344-0.66,0.38-1.567c0.025-0.595-0.229-0.967-0.395-1.145
		c-27.919-4.071-53.968-16.992-75.376-37.4C156.362,72.271,141.562,43.614,137.307,13.14"/>
	<path clip-path="url(#SVGID_2_)" fill="#276092" d="M0,24.667C0,11.044,11.044,0,24.668,0c13.623,0,24.667,11.044,24.667,24.667
		c0,13.624-11.044,24.668-24.667,24.668C11.044,49.335,0,38.291,0,24.667"/>
	<path clip-path="url(#SVGID_2_)" fill="#276092" d="M220.313,25.131c0-13.623,11.045-24.667,24.668-24.667
		c13.624,0,24.668,11.044,24.668,24.667c0,13.624-11.044,24.668-24.668,24.668C231.359,49.799,220.313,38.755,220.313,25.131"/>
	<path clip-path="url(#SVGID_2_)" fill="#276092" d="M0.37,242.663c0-13.623,11.045-24.668,24.668-24.668
		c13.624,0,24.668,11.045,24.668,24.668S38.662,267.33,25.038,267.33C11.416,267.33,0.37,256.286,0.37,242.663"/>
	<path clip-path="url(#SVGID_2_)" fill="#276092" d="M221.009,240.299c0-13.623,11.045-24.667,24.668-24.667
		c13.624,0,24.668,11.044,24.668,24.667s-11.044,24.668-24.668,24.668C232.054,264.967,221.009,253.922,221.009,240.299"/>
</g>
</svg>
